HIERARCHY
ROOT Hips
{
 OFFSET 0.000000 0.000000 0.000000
 CHANNELS 6 Xposition Yposition Zposition Yrotation Xrotation Zrotation
 JOINT Chest
 {
  OFFSET 0.000000 9.585900 0.002600
  CHANNELS 3 Yrotation Xrotation Zrotation
  JOINT Chest2
  {
   OFFSET 0.000000 9.601200 -0.005300
   CHANNELS 3 Yrotation Xrotation Zrotation
   JOINT Chest3
   {
    OFFSET 0.000000 9.561800 0.000000
    CHANNELS 3 Yrotation Xrotation Zrotation
    JOINT Chest4
    {
     OFFSET 0.000000 9.552100 0.000000
     CHANNELS 3 Yrotation Xrotation Zrotation
     JOINT Neck
     {
      OFFSET 0.000000 14.453000 0.000000
      CHANNELS 3 Yrotation Xrotation Zrotation
      JOINT Head
      {
       OFFSET 0.000000 8.936500 -0.011300
       CHANNELS 3 Yrotation Xrotation Zrotation
       End Site
       {
        OFFSET 0.000000 17.073600 -0.006000
       }
      }
     }
     JOINT RightCollar
     {
      OFFSET -2.921100 9.558500 0.000000
      CHANNELS 3 Yrotation Xrotation Zrotation
      JOINT RightShoulder
      {
       OFFSET -13.519700 0.000000 0.000000
       CHANNELS 3 Yrotation Xrotation Zrotation
       JOINT RightElbow
       {
        OFFSET 0.000000 -29.696600 0.000000
        CHANNELS 3 Yrotation Xrotation Zrotation
        JOINT RightWrist
        {
         OFFSET 0.000000 -24.004700 0.000000
         CHANNELS 3 Yrotation Xrotation Zrotation
         End Site
         {
          OFFSET 0.000000 -17.728500 0.000000
         }
        }
       }
      }
     }
     JOINT LeftCollar
     {
      OFFSET 2.921100 9.558500 0.000000
      CHANNELS 3 Yrotation Xrotation Zrotation
      JOINT LeftShoulder
      {
       OFFSET 13.519700 0.000000 0.000000
       CHANNELS 3 Yrotation Xrotation Zrotation
       JOINT LeftElbow
       {
        OFFSET 0.000000 -29.696600 0.000000
        CHANNELS 3 Yrotation Xrotation Zrotation
        JOINT LeftWrist
        {
         OFFSET 0.000000 -24.004700 0.000000
         CHANNELS 3 Yrotation Xrotation Zrotation
         End Site
         {
          OFFSET 0.000000 -17.728500 0.000000
         }
        }
       }
      }
     }
    }
   }
  }
 }
 JOINT RightHip
 {
  OFFSET -7.771700 -0.012900 -0.001300
  CHANNELS 3 Yrotation Xrotation Zrotation
  JOINT RightKnee
  {
   OFFSET 0.000000 -40.869800 0.001200
   CHANNELS 3 Yrotation Xrotation Zrotation
   JOINT RightAnkle
   {
    OFFSET 0.000000 -39.717900 0.002100
    CHANNELS 3 Yrotation Xrotation Zrotation
    JOINT RightToe
    {
     OFFSET 0.000000 -4.965400 11.033500
     CHANNELS 3 Yrotation Xrotation Zrotation
     End Site
     {
      OFFSET 0.000000 -1.423100 5.872300
     }
    }
   }
  }
 }
 JOINT LeftHip
 {
  OFFSET 7.771700 -0.012900 -0.001300
  CHANNELS 3 Yrotation Xrotation Zrotation
  JOINT LeftKnee
  {
   OFFSET 0.000000 -40.869800 0.001200
   CHANNELS 3 Yrotation Xrotation Zrotation
   JOINT LeftAnkle
   {
    OFFSET 0.000000 -39.717900 0.002100
    CHANNELS 3 Yrotation Xrotation Zrotation
    JOINT LeftToe
    {
     OFFSET 0.000000 -4.965400 11.033500
     CHANNELS 3 Yrotation Xrotation Zrotation
     End Site
     {
      OFFSET 0.000000 -1.423100 5.872300
     }
    }
   }
  }
 }
}
MOTION
Frames: 12
Frame Time: 0.008333
0.000000 85.388000 0.000000 0.000000 -5.767877 0.000000 0.000000 11.653817 0.000000 0.000000 -5.885947 0.000000 0.000000 -0.000000 0.000000 0.000000 -0.000000 0.000000 0.000000 12.528835 0.000000 0.000000 0.711642 0.000000 0.000000 -0.000000 0.000000 0.000000 0.000000 -90.000000 0.000000 -2.309062 0.000000 0.000000 2.309062 0.000000 0.000000 -0.000000 0.000000 0.000000 -0.000000 90.000000 0.000000 -2.309062 0.000000 0.000000 2.309062 0.000000 0.000000 8.520406 0.000000 0.000000 1.905762 0.000000 -0.000000 -4.658285 0.000000 0.000000 -0.000000 0.000000 0.000000 8.520406 0.000000 0.000000 1.905762 0.000000 -0.000000 -4.658285 0.000000 0.000000 -0.000000 0.000000
-142.392295 51.517458 -58.986731 177.603394 -24.023161 0.617406 -1.064656 11.486397 -0.162549 -0.074293 0.793884 0.033489 -0.127174 1.361892 0.056778 -0.956058 10.510264 0.363174 0.167162 19.089004 -2.680571 0.788628 -5.530576 -2.884250 0.943381 15.124845 8.111227 1.008867 -8.933523 -45.836052 143.038145 -32.759966 171.933611 -8.367053 -5.989569 4.271660 0.123688 13.344980 -10.298742 -2.954552 -5.804151 43.144460 -147.018485 -35.901659 -168.937806 19.638016 -2.406020 -7.162779 -7.172074 -59.025260 1.612880 -71.989986 83.227403 -80.754147 -2.155479 -7.320757 9.768285 0.300267 -0.737366 0.126864 9.512262 -56.740830 -8.331303 28.634872 86.020876 34.510621 -5.222842 -12.129537 0.701145 0.102832 0.324039 0.058370
-142.391760 51.517586 -58.986121 177.606079 -24.012371 0.609639 -1.078406 11.483258 -0.156101 -0.075196 0.793920 0.033907 -0.120684 1.358668 0.055831 -0.975937 10.513110 0.369339 0.153819 19.067454 -2.688184 0.703181 -5.584283 -2.857583 0.939520 15.132799 8.108571 0.944805 -8.888636 -45.759760 143.067435 -32.664239 171.934942 -8.384098 -5.973022 4.359045 0.128593 13.357250 -10.302349 -2.950619 -5.785898 43.125594 -147.271629 -35.874780 -168.829299 19.681663 -2.496771 -7.378017 -7.185010 -59.034095 1.625443 -71.964517 83.226537 -80.726198 -2.150160 -7.311323 9.769846 0.297761 -0.745311 0.125235 9.507587 -56.752291 -8.324924 28.601516 86.021046 34.476793 -5.209555 -12.133084 0.699542 0.102178 0.327203 0.058040
-142.391315 51.517935 -58.985920 177.610782 -24.003218 0.602133 -1.096236 11.478480 -0.151304 -0.076009 0.794076 0.034288 -0.113097 1.358825 0.054047 -0.994525 10.513566 0.376236 0.139869 19.048287 -2.696262 0.622390 -5.634764 -2.830993 0.941771 15.138032 8.102495 0.919131 -8.866891 -45.727464 143.083369 -32.615583 171.930831 -8.398209 -5.947168 4.440896 0.120137 13.369381 -10.303154 -2.932304 -5.769939 43.106691 -147.520367 -35.846988 -168.725604 19.732967 -2.596973 -7.601449 -7.196479 -59.040806 1.633918 -71.947691 83.229332 -80.706560 -2.147002 -7.307288 9.772287 0.297237 -0.746036 0.124527 9.504933 -56.762719 -8.319789 28.540771 86.023803 34.416485 -5.204638 -12.133924 0.700444 0.108707 0.327760 0.057762
-142.391710 51.518734 -58.986690 177.607885 -23.999624 0.604031 -1.101436 11.476022 -0.152676 -0.076358 0.794198 0.034481 -0.122541 1.361440 0.058178 -0.996104 10.512262 0.375708 0.040123 18.996072 -2.683935 0.627279 -5.650637 -2.846579 0.950415 15.138622 8.095786 0.877864 -8.842699 -45.688424 143.102602 -32.569139 171.925123 -8.411234 -5.924891 4.515939 0.125020 13.370728 -10.309174 -2.932396 -5.747728 43.102911 -147.770677 -35.820516 -168.633703 19.786902 -2.705652 -7.829087 -7.185953 -59.044610 1.621905 -71.967543 83.220332 -80.719076 -2.128450 -7.303625 9.774068 0.294149 -0.750871 0.119397 9.510923 -56.764199 -8.322103 28.533148 86.022406 34.409075 -5.204074 -12.135923 0.699070 0.111620 0.328191 0.057698
-142.391158 51.519638 -58.987580 177.600426 -23.997071 0.603751 -1.101704 11.474233 -0.151136 -0.076614 0.794322 0.034683 -0.131211 1.362574 0.058785 -0.985317 10.511095 0.376090 -0.030449 18.959166 -2.673963 0.600179 -5.680615 -2.842096 0.925535 15.145048 8.103828 0.873364 -8.828599 -45.676424 143.128826 -32.547083 171.916267 -8.415970 -5.909316 4.580140 0.113193 13.373655 -10.299415 -2.943953 -5.722921 43.093824 -148.005760 -35.794334 -168.546523 19.836469 -2.816999 -8.059186 -7.185872 -59.046293 1.627627 -71.967991 83.218843 -80.718280 -2.120987 -7.300000 9.776181 0.286134 -0.752545 0.117011 9.512370 -56.766333 -8.315967 28.504397 86.023900 34.381732 -5.201255 -12.137066 0.697511 0.110939 0.326300 0.056132
-142.390904 51.520754 -58.988754 177.598575 -23.996959 0.604980 -1.114530 11.476373 -0.154029 -0.077341 0.794549 0.034842 -0.132530 1.362820 0.059029 -0.994868 10.511698 0.377732 -0.061607 18.924613 -2.672881 0.560755 -5.717652 -2.829349 0.916267 15.147896 8.101377 0.894713 -8.825030 -45.680924 143.141821 -32.551534 171.909315 -8.422269 -5.889131 4.637282 0.111394 13.373004 -10.278871 -2.962310 -5.696601 43.074825 -148.229500 -35.765355 -168.457802 19.875760 -2.922185 -8.289521 -7.188106 -59.046747 1.629167 -72.004340 83.211115 -80.754657 -2.109226 -7.298631 9.777124 0.280836 -0.754181 0.116192 9.509325 -56.765546 -8.308942 28.476217 86.024647 34.350488 -5.212239 -12.136398 0.699426 0.111546 0.324181 0.054566
-142.389934 51.521428 -58.988696 177.598160 -23.989991 0.603093 -1.122504 11.467861 -0.154121 -0.077803 0.794793 0.034834 -0.133131 1.363290 0.059181 -1.021834 10.514789 0.381153 -0.078574 18.891874 -2.672125 0.525728 -5.753931 -2.816327 0.873683 15.151810 8.091783 0.925214 -8.807169 -45.667458 143.155530 -32.528007 171.906642 -8.440429 -5.893295 4.670719 0.132039 13.367213 -10.276107 -2.968353 -5.683957 43.067262 -148.482539 -35.723983 -168.376490 19.908994 -3.024248 -8.516093 -7.198998 -59.052849 1.639316 -71.998174 83.213761 -80.748299 -2.112504 -7.297693 9.776489 0.279497 -0.752334 0.118226 9.506528 -56.772501 -8.305687 28.405267 86.024125 34.283745 -5.219544 -12.132927 0.696441 0.117977 0.321812 0.054185
-142.388605 51.522417 -58.989058 177.593407 -23.987099 0.602882 -1.131768 11.466117 -0.155070 -0.078307 0.794911 0.035138 -0.134111 1.363541 0.059583 -1.028406 10.514976 0.383927 -0.095798 18.868676 -2.669566 0.501457 -5.779912 -2.805967 0.861785 15.151603 8.086614 0.873353 -8.793748 -45.610023 143.202076 -32.452072 171.907300 -8.447539 -5.882862 4.703645 0.136477 13.360110 -10.270233 -2.974248 -5.672458 43.060755 -148.735409 -35.679705 -168.298997 19.941558 -3.126009 -8.739183 -7.204549 -59.053744 1.648902 -71.978717 83.218224 -80.728213 -2.119855 -7.299876 9.775381 0.283431 -0.749506 0.118580 9.496992 -56.775035 -8.294307 28.384080 86.023320 34.260044 -5.218985 -12.131757 0.695420 0.116209 0.320019 0.051673
-142.387156 51.523526 -58.989424 177.587946 -23.985701 0.603961 -1.145346 11.463186 -0.153170 -0.070986 0.796388 0.033892 -0.148837 1.363221 0.062586 -1.026101 10.515998 0.381252 -0.120170 18.844928 -2.660184 0.526574 -5.773205 -2.826904 0.859916 15.152607 8.081723 0.845742 -8.785383 -45.578838 143.230487 -32.406662 171.903556 -8.465020 -5.831219 4.803784 0.141351 13.352696 -10.263513 -3.041463 -5.653091 43.076724 -148.945544 -35.668631 -168.223346 19.970639 -3.226626 -8.961450 -7.203984 -59.053392 1.653515 -71.967464 83.219769 -80.716521 -2.119224 -7.303443 9.778266 0.282464 -0.746844 0.115714 9.499091 -56.775835 -8.291687 28.363150 86.023874 34.240541 -5.216572 -12.127877 0.694298 0.111166 0.315183 0.050146
-142.385817 51.525088 -58.990624 177.583513 -23.991215 0.606852 -1.144380 11.468335 -0.154515 -0.094107 0.793931 0.038770 -0.130188 1.365562 0.058677 -1.041413 10.515943 0.383566 -0.152028 18.822748 -2.644809 0.458294 -5.823685 -2.781481 0.872286 15.154088 8.074819 0.785228 -8.775662 -45.529566 143.269868 -32.339694 171.902680 -8.478098 -5.790691 4.871217 0.145960 13.341861 -10.255278 -3.114580 -5.635278 43.088637 -149.166408 -35.656163 -168.150122 19.994812 -3.332105 -9.184525 -7.203183 -59.046699 1.655137 -71.965650 83.226546 -80.717082 -2.119935 -7.308145 9.781184 0.277826 -0.745588 0.112205 9.501849 -56.768026 -8.294802 28.456533 86.017812 34.339926 -5.219283 -12.125767 0.688874 0.115000 0.312096 0.049728
-142.383274 51.526014 -58.990306 177.577695 -23.988491 0.603595 -1.151872 11.463865 -0.147305 -0.094671 0.794725 0.036513 -0.123676 1.365955 0.058899 -1.055802 10.515577 0.383028 -0.170005 18.815155 -2.631938 0.419440 -5.841711 -2.751465 0.870526 15.155131 8.073849 0.747226 -8.765256 -45.493316 143.303308 -32.285721 171.890713 -8.485938 -5.777754 4.912159 0.158022 13.335510 -10.252838 -3.213567 -5.619805 43.111231 -149.389497 -35.645210 -168.078543 20.017266 -3.445078 -9.413736 -7.219182 -59.045530 1.670935 -71.911391 83.233868 -80.658008 -2.122840 -7.314549 9.770743 0.278767 -0.740483 0.114714 9.495772 -56.769863 -8.281039 28.527628 86.011742 34.410926 -5.226038 -12.128307 0.688980 0.116020 0.315041 0.047880
